<?xml version="1.0" encoding="UTF-8"?>
<!DOCTYPE svg PUBLIC "-//W3C//DTD SVG 1.1//EN" "http://www.w3.org/Graphics/SVG/1.1/DTD/svg11.dtd">
<svg xmlns="http://www.w3.org/2000/svg" version="1.1" width="500px" height="500px" style="shape-rendering:geometricPrecision; text-rendering:geometricPrecision; image-rendering:optimizeQuality; fill-rule:evenodd; clip-rule:evenodd" xmlns:xlink="http://www.w3.org/1999/xlink">
<g><path style="opacity:0.282" fill="#8d8d8d" d="M 125.5,33.5 C 125.631,32.7611 125.464,32.0944 125,31.5C 124.292,32.3805 123.458,33.0472 122.5,33.5C 123.391,31.3911 124.558,29.3911 126,27.5C 126.789,29.7116 126.622,31.7116 125.5,33.5 Z"/></g>
<g><path style="opacity:0.059" fill="#c9c9c9" d="M 116.5,44.5 C 116.573,46.0269 115.906,47.0269 114.5,47.5C 114.427,45.9731 115.094,44.9731 116.5,44.5 Z"/></g>
<g><path style="opacity:0.998" fill="#1c1c1c" d="M 387.5,103.5 C 385.837,105.438 385.171,107.772 385.5,110.5C 386.257,121.951 383.59,132.451 377.5,142C 378.094,142.464 378.761,142.631 379.5,142.5C 381.404,142.262 382.738,141.262 383.5,139.5C 391.303,132.851 397.469,124.851 402,115.5C 405.904,101.912 409.404,88.245 412.5,74.5C 423.37,112.658 412.036,141.825 378.5,162C 363.606,170.062 348.606,177.729 333.5,185C 321.003,193.082 308.67,201.416 296.5,210C 294.167,210.333 291.833,210.667 289.5,211C 292.824,211.943 296.157,212.776 299.5,213.5C 301.099,213.232 302.432,213.566 303.5,214.5C 303.5,214.833 303.5,215.167 303.5,215.5C 302.833,215.5 302.5,215.833 302.5,216.5C 300.683,217.219 300.016,218.219 300.5,219.5C 302.917,219.006 304.584,217.672 305.5,215.5C 306.436,214.026 307.77,213.026 309.5,212.5C 311.027,212.573 312.027,211.906 312.5,210.5C 331.323,187.36 355.656,177.693 385.5,181.5C 387.607,182.468 389.941,182.802 392.5,182.5C 392.5,184.833 392.5,187.167 392.5,189.5C 383.004,218.164 363.67,236.33 334.5,244C 327.463,244.741 320.463,245.741 313.5,247C 309.667,248.167 307.167,250.667 306,254.5C 305.841,259.916 305.174,265.25 304,270.5C 298.31,280.562 292.81,290.229 287.5,299.5C 287.5,300.167 287.167,300.5 286.5,300.5C 286.167,300.5 285.833,300.5 285.5,300.5C 284.5,300.833 283.833,301.5 283.5,302.5C 282.662,302.842 282.328,303.508 282.5,304.5C 282.167,304.5 281.833,304.5 281.5,304.5C 280.11,305.899 279.11,307.566 278.5,309.5C 278.414,310.496 278.748,311.329 279.5,312C 278.906,312.464 278.239,312.631 277.5,312.5C 278.708,315.402 279.375,318.235 279.5,321C 279,321.5 278.5,322 278,322.5C 277.802,320.618 277.302,318.952 276.5,317.5C 276.672,316.508 276.338,315.842 275.5,315.5C 274.532,317.607 274.198,319.941 274.5,322.5C 273.761,322.369 273.094,322.536 272.5,323C 275.018,327.107 275.018,331.274 272.5,335.5C 271.124,338.21 269.124,340.21 266.5,341.5C 263.487,342.648 260.487,342.814 257.5,342C 259.594,343.352 261.927,343.852 264.5,343.5C 265.167,344.167 265.833,344.833 266.5,345.5C 265.694,346.728 264.694,347.728 263.5,348.5C 262.833,348.5 262.5,348.833 262.5,349.5C 261.833,349.5 261.5,349.833 261.5,350.5C 260.209,350.263 259.209,350.596 258.5,351.5C 257.508,351.328 256.842,351.662 256.5,352.5C 251.833,352.5 247.167,352.5 242.5,352.5C 242.158,351.662 241.492,351.328 240.5,351.5C 239.791,350.596 238.791,350.263 237.5,350.5C 237.5,349.833 237.167,349.5 236.5,349.5C 236.167,348.167 235.833,348.167 235.5,349.5C 234.833,349.5 234.5,349.167 234.5,348.5C 234.167,347.167 233.833,347.167 233.5,348.5C 229.637,346.643 227.304,343.643 226.5,339.5C 227.391,340.11 228.391,340.443 229.5,340.5C 224.399,335.121 223.399,329.121 226.5,322.5C 227.848,321.473 228.348,320.14 228,318.5C 226.905,319.693 226.072,321.027 225.5,322.5C 225.167,322.5 224.833,322.5 224.5,322.5C 224.802,319.941 224.468,317.607 223.5,315.5C 223.167,314.167 222.833,314.167 222.5,315.5C 221.596,314.791 221.263,313.791 221.5,312.5C 222.167,312.5 222.5,312.167 222.5,311.5C 221.89,309.566 220.89,307.899 219.5,306.5C 219.167,305.5 218.5,304.833 217.5,304.5C 217.167,304.5 216.833,304.5 216.5,304.5C 216.5,303.833 216.167,303.5 215.5,303.5C 215.5,302.833 215.167,302.5 214.5,302.5C 214.5,301.833 214.167,301.5 213.5,301.5C 211.213,297.548 208.546,293.881 205.5,290.5C 205.443,289.391 205.11,288.391 204.5,287.5C 204.5,286.833 204.167,286.5 203.5,286.5C 203.5,285.833 203.167,285.5 202.5,285.5C 202.672,284.508 202.338,283.842 201.5,283.5C 196.916,273.248 193.416,262.581 191,251.5C 189.542,249.04 187.709,246.873 185.5,245C 167.853,245.942 151.52,241.942 136.5,233C 133.568,230.715 130.902,228.215 128.5,225.5C 128.167,224.5 127.5,223.833 126.5,223.5C 126.167,222.5 125.5,221.833 124.5,221.5C 113.48,210.755 107.48,197.755 106.5,182.5C 130.716,177.088 152.716,181.755 172.5,196.5C 177.836,202.336 183.503,207.836 189.5,213C 192.059,214.777 194.726,216.277 197.5,217.5C 197.833,218.833 198.167,218.833 198.5,217.5C 198.67,216.178 198.337,215.011 197.5,214C 199.382,213.802 201.048,213.302 202.5,212.5C 205.201,211.751 207.868,210.751 210.5,209.5C 212.196,209.315 213.529,208.481 214.5,207C 212.609,206.797 210.943,207.297 209.5,208.5C 205.59,208.737 201.923,207.904 198.5,206C 187.459,199.483 176.459,192.983 165.5,186.5C 165.027,185.094 164.027,184.427 162.5,184.5C 148.902,177.7 135.569,170.367 122.5,162.5C 122.027,161.094 121.027,160.427 119.5,160.5C 113.612,157.607 108.278,153.94 103.5,149.5C 103.5,147.5 102.5,146.5 100.5,146.5C 96.8276,143.151 94.1609,139.151 92.5,134.5C 92.1667,133.5 91.5,132.833 90.5,132.5C 83.3584,117.071 82.0251,101.071 86.5,84.5C 87.1667,81.5 87.8333,78.5 88.5,75.5C 89.6525,82.3581 90.6525,89.3581 91.5,96.5C 92.079,100.237 92.079,103.904 91.5,107.5C 92.3569,108.425 93.3569,109.092 94.5,109.5C 95.8455,113.207 97.1789,116.874 98.5,120.5C 98.427,122.027 99.0937,123.027 100.5,123.5C 100.427,125.027 101.094,126.027 102.5,126.5C 107.178,132.177 112.511,137.177 118.5,141.5C 118.821,143.048 119.821,143.715 121.5,143.5C 122.833,143.167 122.833,142.833 121.5,142.5C 117.083,132.032 114.583,121.032 114,109.5C 105.185,88.6813 105.352,68.0146 114.5,47.5C 115.906,47.0269 116.573,46.0269 116.5,44.5C 117.722,40.3881 119.722,36.7214 122.5,33.5C 123.458,33.0472 124.292,32.3805 125,31.5C 125.464,32.0944 125.631,32.7611 125.5,33.5C 120.865,48.5047 119.032,63.838 120,79.5C 120.822,81.7885 121.489,84.1218 122,86.5C 127.064,82.589 132.231,78.9223 137.5,75.5C 138.117,75.3893 138.617,75.056 139,74.5C 140.204,75.8586 141.704,76.8586 143.5,77.5C 142.482,78.8524 141.149,79.8524 139.5,80.5C 141.855,81.5218 143.522,83.1884 144.5,85.5C 139.016,91.1353 134.516,97.4686 131,104.5C 130.333,108.5 130.333,112.5 131,116.5C 132.114,120.933 133.281,125.266 134.5,129.5C 134.427,131.027 135.094,132.027 136.5,132.5C 140.738,141.912 146.738,150.079 154.5,157C 168.261,164.212 181.928,171.378 195.5,178.5C 195.542,168.778 195.542,158.778 195.5,148.5C 195.889,145.447 195.223,142.78 193.5,140.5C 190.183,131.861 185.85,123.861 180.5,116.5C 180.918,115.778 181.584,115.278 182.5,115C 181.833,114.667 181.167,114.333 180.5,114C 182.545,113.51 184.545,113.677 186.5,114.5C 197.291,121.807 204.457,131.807 208,144.5C 209.47,154.215 211.137,163.882 213,173.5C 215.871,181.926 220.704,188.926 227.5,194.5C 228.5,196.167 229.833,197.5 231.5,198.5C 232.833,198.167 232.833,197.833 231.5,197.5C 231.047,196.542 230.381,195.708 229.5,195C 229.728,194.601 230.062,194.435 230.5,194.5C 236.885,195.68 243.218,197.014 249.5,198.5C 255.782,197.014 262.115,195.68 268.5,194.5C 268.938,194.435 269.272,194.601 269.5,195C 268.315,196.353 266.981,197.52 265.5,198.5C 267.733,199.016 269.4,198.016 270.5,195.5C 277.375,189.787 282.542,182.787 286,174.5C 287.774,165.541 289.274,156.541 290.5,147.5C 291.924,145.485 292.59,143.152 292.5,140.5C 296.133,128.869 303.133,119.869 313.5,113.5C 315.153,113.34 316.486,112.674 317.5,111.5C 319.176,112.183 319.843,113.517 319.5,115.5C 311.608,123.952 306.441,133.952 304,145.5C 303.821,156.41 303.321,167.243 302.5,178C 303.094,178.464 303.761,178.631 304.5,178.5C 306.967,178.245 308.967,177.245 310.5,175.5C 322.567,169.026 334.567,162.36 346.5,155.5C 360.183,141.928 367.349,125.595 368,106.5C 364.815,97.4531 359.648,89.7864 352.5,83.5C 352.966,81.7988 352.966,80.2988 352.5,79C 353.167,78.6667 353.833,78.3333 354.5,78C 353.167,76.6667 353.167,75.3333 354.5,74C 352.225,71.1184 352.891,70.7851 356.5,73C 357.74,75.4726 359.407,75.9726 361.5,74.5C 364.786,76.4512 367.786,78.7846 370.5,81.5C 370.5,83.5 371.5,84.5 373.5,84.5C 374.721,85.0283 375.887,85.695 377,86.5C 377.419,85.3279 378.085,84.3279 379,83.5C 380.226,65.4083 378.059,47.7416 372.5,30.5C 373.868,29.4063 375.035,29.7397 376,31.5C 388.997,49.8205 393.997,70.1538 391,92.5C 389.894,96.208 388.727,99.8746 387.5,103.5 Z M 216.5,254.5 C 209.545,250.687 202.545,246.854 195.5,243C 205.995,240.579 212.995,244.412 216.5,254.5 Z M 295.5,249.5 C 292.458,249.733 289.792,250.733 287.5,252.5C 283.833,253.5 281.5,255.833 280.5,259.5C 280.167,259.5 279.833,259.5 279.5,259.5C 282.265,247.242 289.932,241.742 302.5,243C 300.093,245.183 297.76,247.35 295.5,249.5 Z M 296.5,251.5 C 296.633,253.771 295.633,255.938 293.5,258C 291.257,258.797 289.923,258.63 289.5,257.5C 291.539,255.126 293.872,253.126 296.5,251.5 Z M 201.5,253.5 C 205.201,252.525 207.868,254.025 209.5,258C 208.167,258.667 206.833,258.667 205.5,258C 204.267,256.333 202.933,254.833 201.5,253.5 Z M 229.5,340.5 C 230.391,341.11 231.391,341.443 232.5,341.5C 232.158,342.338 231.492,342.672 230.5,342.5C 229.662,342.158 229.328,341.492 229.5,340.5 Z"/></g>
<g><path style="opacity:0.97" fill="#282728" d="M 329.5,33.5 C 331.62,39.0733 334.287,44.4067 337.5,49.5C 337.427,51.0269 338.094,52.0269 339.5,52.5C 344.166,56.8339 348.5,61.5005 352.5,66.5C 352.833,67.5 353.5,68.1667 354.5,68.5C 357.427,69.7573 359.761,71.7573 361.5,74.5C 359.407,75.9726 357.74,75.4726 356.5,73C 352.891,70.7851 352.225,71.1184 354.5,74C 353.167,75.3333 353.167,76.6667 354.5,78C 353.833,78.3333 353.167,78.6667 352.5,79C 352.966,80.2988 352.966,81.7988 352.5,83.5C 338.881,72.313 330.881,57.9797 328.5,40.5C 328.198,37.9407 328.532,35.6074 329.5,33.5 Z"/></g>
<g><path style="opacity:0.979" fill="#272727" d="M 144.5,85.5 C 143.522,83.1884 141.855,81.5218 139.5,80.5C 141.149,79.8524 142.482,78.8524 143.5,77.5C 141.704,76.8586 140.204,75.8586 139,74.5C 138.617,75.056 138.117,75.3893 137.5,75.5C 145.752,68.0791 153.586,60.0791 161,51.5C 165.113,45.6092 168.446,39.2758 171,32.5C 172.062,45.1858 169.062,56.8524 162,67.5C 156.663,74.0038 150.829,80.0038 144.5,85.5 Z"/></g>
<g><path style="opacity:0.188" fill="#a1a1a1" d="M 337.5,49.5 C 338.906,49.9731 339.573,50.9731 339.5,52.5C 338.094,52.0269 337.427,51.0269 337.5,49.5 Z"/></g>
<g><path style="opacity:0.02" fill="#c3c2c3" d="M 329.5,33.5 C 328.532,35.6074 328.198,37.9407 328.5,40.5C 327.2,37.9759 327.2,35.3092 328.5,32.5C 329.107,32.6236 329.44,32.9569 329.5,33.5 Z"/></g>
<g><path style="opacity:0.008" fill="#c9c9c9" d="M 352.5,66.5 C 353.833,66.5 354.5,67.1667 354.5,68.5C 353.5,68.1667 352.833,67.5 352.5,66.5 Z"/></g>
<g><path style="opacity:0.345" fill="#828081" d="M 88.5,75.5 C 87.8333,78.5 87.1667,81.5 86.5,84.5C 86.1796,81.1016 86.513,77.7683 87.5,74.5C 88.1067,74.6236 88.44,74.9569 88.5,75.5 Z"/></g>
<g><path style="opacity:0.322" fill="#898989" d="M 370.5,81.5 C 371.833,82.1667 372.833,83.1667 373.5,84.5C 371.5,84.5 370.5,83.5 370.5,81.5 Z"/></g>
<g><path style="opacity:0.314" fill="#606060" d="M 91.5,96.5 C 92.9546,100.618 93.9546,104.951 94.5,109.5C 93.3569,109.092 92.3569,108.425 91.5,107.5C 92.079,103.904 92.079,100.237 91.5,96.5 Z"/></g>
<g><path style="opacity:0.31" fill="#8f8e8e" d="M 387.5,103.5 C 387.279,106.067 386.612,108.401 385.5,110.5C 385.171,107.772 385.837,105.438 387.5,103.5 Z"/></g>
<g><path style="opacity:0.816" fill="#535353" d="M 319.5,115.5 C 319.843,113.517 319.176,112.183 317.5,111.5C 319.382,110.249 321.382,109.082 323.5,108C 324.635,107.251 325.635,107.417 326.5,108.5C 323.897,110.621 321.564,112.954 319.5,115.5 Z"/></g>
<g><path style="opacity:0.888" fill="#4d4d4d" d="M 186.5,114.5 C 184.545,113.677 182.545,113.51 180.5,114C 181.167,114.333 181.833,114.667 182.5,115C 181.584,115.278 180.918,115.778 180.5,116.5C 177.026,113.198 173.359,110.032 169.5,107C 171.913,106.516 174.246,106.85 176.5,108C 179.167,109.333 181.833,110.667 184.5,112C 185.381,112.708 186.047,113.542 186.5,114.5 Z"/></g>
<g><path style="opacity:0.349" fill="#9b9999" d="M 317.5,111.5 C 316.486,112.674 315.153,113.34 313.5,113.5C 314.287,111.896 315.62,111.229 317.5,111.5 Z"/></g>
<g><path style="opacity:0.11" fill="#a09999" d="M 98.5,120.5 C 99.9063,120.973 100.573,121.973 100.5,123.5C 99.0937,123.027 98.427,122.027 98.5,120.5 Z"/></g>
<g><path style="opacity:0.314" fill="#969696" d="M 100.5,123.5 C 101.906,123.973 102.573,124.973 102.5,126.5C 101.094,126.027 100.427,125.027 100.5,123.5 Z"/></g>
<g><path style="opacity:0.102" fill="#919191" d="M 134.5,129.5 C 135.906,129.973 136.573,130.973 136.5,132.5C 135.094,132.027 134.427,131.027 134.5,129.5 Z"/></g>
<g><path style="opacity:0.004" fill="#cccccc" d="M 90.5,132.5 C 91.5,132.833 92.1667,133.5 92.5,134.5C 91.1667,134.5 90.5,133.833 90.5,132.5 Z"/></g>
<g><path style="opacity:0.255" fill="#8f8d8f" d="M 383.5,139.5 C 382.738,141.262 381.404,142.262 379.5,142.5C 380.262,140.738 381.596,139.738 383.5,139.5 Z"/></g>
<g><path style="opacity:0.435" fill="#949494" d="M 118.5,141.5 C 119.391,142.11 120.391,142.443 121.5,142.5C 121.5,142.833 121.5,143.167 121.5,143.5C 119.821,143.715 118.821,143.048 118.5,141.5 Z"/></g>
<g><path style="opacity:0.235" fill="#979797" d="M 193.5,140.5 C 195.223,142.78 195.889,145.447 195.5,148.5C 194.469,146.039 193.802,143.373 193.5,140.5 Z"/></g>
<g><path style="opacity:0.035" fill="#a5a3a4" d="M 292.5,140.5 C 292.59,143.152 291.924,145.485 290.5,147.5C 290.41,144.848 291.076,142.515 292.5,140.5 Z"/></g>
<g><path style="opacity:0.2" fill="#aeaeae" d="M 100.5,146.5 C 102.5,146.5 103.5,147.5 103.5,149.5C 102.167,148.833 101.167,147.833 100.5,146.5 Z"/></g>
<g><path style="opacity:0.231" fill="#b3b2b2" d="M 119.5,160.5 C 121.027,160.427 122.027,161.094 122.5,162.5C 120.973,162.573 119.973,161.906 119.5,160.5 Z"/></g>
<g><path style="opacity:0.525" fill="#757575" d="M 310.5,175.5 C 308.967,177.245 306.967,178.245 304.5,178.5C 306.033,176.755 308.033,175.755 310.5,175.5 Z"/></g>
<g><path style="opacity:0.325" fill="#646464" d="M 385.5,181.5 C 388.167,181.5 390.833,181.5 393.5,181.5C 393.806,184.385 393.473,187.052 392.5,189.5C 392.5,187.167 392.5,184.833 392.5,182.5C 389.941,182.802 387.607,182.468 385.5,181.5 Z"/></g>
<g><path style="opacity:0.086" fill="#a2a1a2" d="M 162.5,184.5 C 164.027,184.427 165.027,185.094 165.5,186.5C 163.973,186.573 162.973,185.906 162.5,184.5 Z"/></g>
<g><path style="opacity:0.071" fill="#b4b4b4" d="M 230.5,194.5 C 230.062,194.435 229.728,194.601 229.5,195C 230.381,195.708 231.047,196.542 231.5,197.5C 231.5,197.833 231.5,198.167 231.5,198.5C 229.833,197.5 228.5,196.167 227.5,194.5C 228.652,193.375 229.652,193.375 230.5,194.5 Z"/></g>
<g><path style="opacity:0.063" fill="#a5a3a4" d="M 268.5,194.5 C 269.623,193.243 270.289,193.576 270.5,195.5C 269.4,198.016 267.733,199.016 265.5,198.5C 266.981,197.52 268.315,196.353 269.5,195C 269.272,194.601 268.938,194.435 268.5,194.5 Z"/></g>
<g><path style="opacity:0.055" fill="#b5b5b5" d="M 210.5,209.5 C 210.5,208.833 210.167,208.5 209.5,208.5C 210.943,207.297 212.609,206.797 214.5,207C 213.529,208.481 212.196,209.315 210.5,209.5 Z"/></g>
<g><path style="opacity:0.157" fill="#a09b9f" d="M 288.5,209.5 C 288.5,209.833 288.5,210.167 288.5,210.5C 286.114,209.627 284.114,208.127 282.5,206C 284.87,206.357 286.87,207.524 288.5,209.5 Z"/></g>
<g><path style="opacity:0.275" fill="#949494" d="M 312.5,210.5 C 312.027,211.906 311.027,212.573 309.5,212.5C 309.973,211.094 310.973,210.427 312.5,210.5 Z"/></g>
<g><path style="opacity:0.231" fill="#a09da1" d="M 299.5,213.5 C 301.288,212.378 303.288,212.211 305.5,213C 304.956,213.717 304.289,214.217 303.5,214.5C 302.432,213.566 301.099,213.232 299.5,213.5 Z"/></g>
<g><path style="opacity:0.733" fill="#696567" d="M 202.5,212.5 C 201.048,213.302 199.382,213.802 197.5,214C 198.337,215.011 198.67,216.178 198.5,217.5C 198.167,217.5 197.833,217.5 197.5,217.5C 196.058,216.18 195.392,214.514 195.5,212.5C 197.833,212.5 200.167,212.5 202.5,212.5 Z"/></g>
<g><path style="opacity:0.278" fill="#8c888c" d="M 303.5,215.5 C 304.167,215.5 304.833,215.5 305.5,215.5C 304.584,217.672 302.917,219.006 300.5,219.5C 300.016,218.219 300.683,217.219 302.5,216.5C 302.5,215.833 302.833,215.5 303.5,215.5 Z"/></g>
<g><path style="opacity:0.004" fill="#cdcacd" d="M 124.5,221.5 C 125.5,221.833 126.167,222.5 126.5,223.5C 125.167,223.5 124.5,222.833 124.5,221.5 Z"/></g>
<g><path style="opacity:0.008" fill="#cccccc" d="M 126.5,223.5 C 127.5,223.833 128.167,224.5 128.5,225.5C 127.167,225.5 126.5,224.833 126.5,223.5 Z"/></g>
<g><path style="opacity:0.957" fill="#494648" d="M 295.5,249.5 C 295.328,250.492 295.662,251.158 296.5,251.5C 293.872,253.126 291.539,255.126 289.5,257.5C 288.637,256.06 288.637,254.726 289.5,253.5C 289.043,252.702 288.376,252.369 287.5,252.5C 289.792,250.733 292.458,249.733 295.5,249.5 Z"/></g>
<g><path style="opacity:0.024" fill="#c3c3c3" d="M 217.5,255.5 C 218.573,256.251 218.74,257.251 218,258.5C 217.283,257.956 216.783,257.289 216.5,256.5C 217.167,256.5 217.5,256.167 217.5,255.5 Z"/></g>
<g><path style="opacity:0.125" fill="#878383" d="M 278.5,259.5 C 278.833,260.833 279.167,260.833 279.5,259.5C 279.833,259.5 280.167,259.5 280.5,259.5C 279.609,261.609 278.442,263.609 277,265.5C 276.879,263.316 277.379,261.316 278.5,259.5 Z"/></g>
<g><path style="opacity:0.182" fill="#8c898e" d="M 201.5,283.5 C 201.5,283.833 201.5,284.167 201.5,284.5C 200.833,288.833 200.167,293.167 199.5,297.5C 199.334,292.489 199.501,287.489 200,282.5C 200.383,283.056 200.883,283.389 201.5,283.5 Z"/></g>
<g><path style="opacity:0.999" fill="#191919" d="M 201.5,284.5 C 201.5,285.167 201.833,285.5 202.5,285.5C 202.5,285.833 202.5,286.167 202.5,286.5C 202.328,287.492 202.662,288.158 203.5,288.5C 203.833,289.5 204.5,290.167 205.5,290.5C 207.013,295.012 209.68,298.679 213.5,301.5C 214.167,301.5 214.5,301.833 214.5,302.5C 215.167,302.5 215.5,302.833 215.5,303.5C 216.167,303.5 216.5,303.833 216.5,304.5C 216.5,304.833 216.5,305.167 216.5,305.5C 216.842,306.338 217.508,306.672 218.5,306.5C 218.5,306.833 218.5,307.167 218.5,307.5C 219.512,308.872 220.512,310.205 221.5,311.5C 221.5,311.833 221.5,312.167 221.5,312.5C 221.263,313.791 221.596,314.791 222.5,315.5C 222.5,318.5 222.5,321.5 222.5,324.5C 221.672,330.19 223.006,335.19 226.5,339.5C 227.304,343.643 229.637,346.643 233.5,348.5C 233.833,348.5 234.167,348.5 234.5,348.5C 234.5,349.167 234.833,349.5 235.5,349.5C 235.833,349.5 236.167,349.5 236.5,349.5C 237.167,349.5 237.5,349.833 237.5,350.5C 238.209,351.404 239.209,351.737 240.5,351.5C 240.842,352.338 241.508,352.672 242.5,352.5C 247.167,353.833 251.833,353.833 256.5,352.5C 257.492,352.672 258.158,352.338 258.5,351.5C 259.791,351.737 260.791,351.404 261.5,350.5C 262.167,350.5 262.5,350.167 262.5,349.5C 263.167,349.5 263.833,349.5 264.5,349.5C 265.962,348.542 267.295,347.376 268.5,346C 267.906,345.536 267.239,345.369 266.5,345.5C 265.833,344.833 265.167,344.167 264.5,343.5C 266.099,343.768 267.432,343.434 268.5,342.5C 275.048,338.403 277.715,332.403 276.5,324.5C 276.5,322.167 276.5,319.833 276.5,317.5C 277.302,318.952 277.802,320.618 278,322.5C 278.5,322 279,321.5 279.5,321C 279.375,318.235 278.708,315.402 277.5,312.5C 278.239,312.631 278.906,312.464 279.5,312C 278.748,311.329 278.414,310.496 278.5,309.5C 280.167,308.5 281.5,307.167 282.5,305.5C 283.5,305.167 284.167,304.5 284.5,303.5C 284.5,303.167 284.5,302.833 284.5,302.5C 285.492,302.672 286.158,302.338 286.5,301.5C 286.5,301.167 286.5,300.833 286.5,300.5C 287.167,300.5 287.5,300.167 287.5,299.5C 290.981,295.237 294.481,290.903 298,286.5C 298.774,306.93 302.108,326.93 308,346.5C 310.183,350.703 312.183,355.036 314,359.5C 317.073,363.061 319.906,366.728 322.5,370.5C 323.895,371.648 323.728,372.648 322,373.5C 320.333,372.833 318.667,372.167 317,371.5C 316.156,373.463 316.656,374.796 318.5,375.5C 319.117,375.611 319.617,375.944 320,376.5C 321.878,385.145 320.878,393.479 317,401.5C 309.358,413.974 299.524,424.308 287.5,432.5C 285.586,433.185 283.586,433.685 281.5,434C 281.088,435.564 280.755,437.064 280.5,438.5C 270.866,446.466 261.866,455.133 253.5,464.5C 249.543,467.313 247.21,466.646 246.5,462.5C 244.925,461.544 243.258,460.877 241.5,460.5C 229.653,448.573 216.986,437.573 203.5,427.5C 194.294,419.469 186.794,410.136 181,399.5C 177.574,390.662 177.741,381.995 181.5,373.5C 181.187,372.611 180.02,371.945 178,371.5C 177.53,370.423 177.697,369.423 178.5,368.5C 186.88,356.37 192.547,343.037 195.5,328.5C 196.222,328.082 196.722,327.416 197,326.5C 197.497,323.854 197.664,321.187 197.5,318.5C 198.044,311.444 198.71,304.444 199.5,297.5C 200.167,293.167 200.833,288.833 201.5,284.5 Z M 205.5,290.5 C 208.546,293.881 211.213,297.548 213.5,301.5C 209.68,298.679 207.013,295.012 205.5,290.5 Z M 204.5,287.5 C 205.11,288.391 205.443,289.391 205.5,290.5C 204.5,290.167 203.833,289.5 203.5,288.5C 203.5,287.833 203.833,287.5 204.5,287.5 Z M 224.5,322.5 C 224.833,322.5 225.167,322.5 225.5,322.5C 225.833,322.5 226.167,322.5 226.5,322.5C 223.399,329.121 224.399,335.121 229.5,340.5C 228.391,340.443 227.391,340.11 226.5,339.5C 223.006,335.19 221.672,330.19 222.5,324.5C 223.167,323.833 223.833,323.167 224.5,322.5 Z M 274.5,322.5 C 275.167,323.167 275.833,323.833 276.5,324.5C 277.715,332.403 275.048,338.403 268.5,342.5C 267.508,342.672 266.842,342.338 266.5,341.5C 269.124,340.21 271.124,338.21 272.5,335.5C 275.018,331.274 275.018,327.107 272.5,323C 273.094,322.536 273.761,322.369 274.5,322.5 Z M 229.5,340.5 C 230.391,341.11 231.391,341.443 232.5,341.5C 232.158,342.338 231.492,342.672 230.5,342.5C 229.662,342.158 229.328,341.492 229.5,340.5 Z"/></g>
<g><path style="opacity:0.008" fill="#f2f2f5" d="M 202.5,286.5 C 202.833,286.5 203.167,286.5 203.5,286.5C 204.167,286.5 204.5,286.833 204.5,287.5C 203.833,287.5 203.5,287.833 203.5,288.5C 202.662,288.158 202.328,287.492 202.5,286.5 Z"/></g>
<g><path style="opacity:0.004" fill="#d7d7d7" d="M 285.5,300.5 C 285.5,301.167 285.833,301.5 286.5,301.5C 286.158,302.338 285.492,302.672 284.5,302.5C 284.167,302.5 283.833,302.5 283.5,302.5C 283.833,301.5 284.5,300.833 285.5,300.5 Z"/></g>
<g><path style="opacity:0.008" fill="#bcb9b9" d="M 283.5,302.5 C 283.5,303.167 283.833,303.5 284.5,303.5C 284.167,304.5 283.5,305.167 282.5,305.5C 282.5,305.167 282.5,304.833 282.5,304.5C 282.328,303.508 282.662,302.842 283.5,302.5 Z"/></g>
<g><path style="opacity:0.004" fill="#c2c0c2" d="M 217.5,304.5 C 218.5,304.833 219.167,305.5 219.5,306.5C 219.167,306.5 218.833,306.5 218.5,306.5C 217.508,306.672 216.842,306.338 216.5,305.5C 217.167,305.5 217.5,305.167 217.5,304.5 Z"/></g>
<g><path style="opacity:0.012" fill="#c4c4c7" d="M 219.5,306.5 C 220.89,307.899 221.89,309.566 222.5,311.5C 222.167,311.5 221.833,311.5 221.5,311.5C 220.512,310.205 219.512,308.872 218.5,307.5C 219.167,307.5 219.5,307.167 219.5,306.5 Z"/></g>
<g><path style="opacity:0.035" fill="#cecdcd" d="M 281.5,304.5 C 281.5,305.167 281.833,305.5 282.5,305.5C 281.5,307.167 280.167,308.5 278.5,309.5C 279.11,307.566 280.11,305.899 281.5,304.5 Z"/></g>
<g><path style="opacity:0.486" fill="#6f6f6f" d="M 270.5,319.5 C 269.067,318.167 267.733,316.667 266.5,315C 269.302,314.976 270.636,316.476 270.5,319.5 Z"/></g>
<g><path style="opacity:0.043" fill="#b5b5b5" d="M 222.5,315.5 C 222.833,315.5 223.167,315.5 223.5,315.5C 224.468,317.607 224.802,319.941 224.5,322.5C 223.833,323.167 223.167,323.833 222.5,324.5C 222.5,321.5 222.5,318.5 222.5,315.5 Z"/></g>
<g><path style="opacity:0.102" fill="#9f9c9f" d="M 226.5,322.5 C 226.167,322.5 225.833,322.5 225.5,322.5C 226.072,321.027 226.905,319.693 228,318.5C 228.348,320.14 227.848,321.473 226.5,322.5 Z"/></g>
<g><path style="opacity:0.11" fill="#afabac" d="M 275.5,315.5 C 275.328,316.492 275.662,317.158 276.5,317.5C 276.5,319.833 276.5,322.167 276.5,324.5C 275.833,323.833 275.167,323.167 274.5,322.5C 274.198,319.941 274.532,317.607 275.5,315.5 Z"/></g>
<g><path style="opacity:0.6" fill="#6d6b6c" d="M 197.5,318.5 C 197.664,321.187 197.497,323.854 197,326.5C 196.722,327.416 196.222,328.082 195.5,328.5C 195.899,324.989 196.566,321.656 197.5,318.5 Z"/></g>
<g><path style="opacity:0.122" fill="#b0aeae" d="M 232.5,341.5 C 235.127,342.105 237.793,342.605 240.5,343C 236.973,343.808 233.64,343.641 230.5,342.5C 231.492,342.672 232.158,342.338 232.5,341.5 Z"/></g>
<g><path style="opacity:0.043" fill="#adadad" d="M 266.5,341.5 C 266.842,342.338 267.508,342.672 268.5,342.5C 267.432,343.434 266.099,343.768 264.5,343.5C 261.927,343.852 259.594,343.352 257.5,342C 260.487,342.814 263.487,342.648 266.5,341.5 Z"/></g>
<g><path style="opacity:0.043" fill="#b7b7b7" d="M 266.5,345.5 C 267.239,345.369 267.906,345.536 268.5,346C 267.295,347.376 265.962,348.542 264.5,349.5C 264.5,348.833 264.167,348.5 263.5,348.5C 264.694,347.728 265.694,346.728 266.5,345.5 Z"/></g>
<g><path style="opacity:0.988" fill="#5e5d5d" d="M 178.5,368.5 C 177.697,369.423 177.53,370.423 178,371.5C 180.02,371.945 181.187,372.611 181.5,373.5C 178.792,374.449 176.126,374.449 173.5,373.5C 174.544,371.123 176.21,369.456 178.5,368.5 Z"/></g>
<g><path style="opacity:0.957" fill="#545354" d="M 322.5,370.5 C 324.134,371.207 325.468,372.373 326.5,374C 324.101,374.711 321.768,374.544 319.5,373.5C 318.702,373.957 318.369,374.624 318.5,375.5C 316.656,374.796 316.156,373.463 317,371.5C 318.667,372.167 320.333,372.833 322,373.5C 323.728,372.648 323.895,371.648 322.5,370.5 Z"/></g>
<g><path style="opacity:1" fill="#4e4d4e" d="M 287.5,432.5 C 285.807,435.19 283.473,437.19 280.5,438.5C 280.755,437.064 281.088,435.564 281.5,434C 283.586,433.685 285.586,433.185 287.5,432.5 Z"/></g>
<g><path style="opacity:0.826" fill="#4c4b4c" d="M 241.5,460.5 C 243.258,460.877 244.925,461.544 246.5,462.5C 247.21,466.646 249.543,467.313 253.5,464.5C 252.262,466.619 250.762,468.619 249,470.5C 246.734,466.958 244.234,463.625 241.5,460.5 Z"/></g>
</svg>
